<svg xmlns="http://www.w3.org/2000/svg" width="30" height="31" viewBox="0 0 30 31">
  <metadata><?xpacket begin="﻿" id="W5M0MpCehiHzreSzNTczkc9d"?>
<x:xmpmeta xmlns:x="adobe:ns:meta/" x:xmptk="Adobe XMP Core 5.6-c142 79.160924, 2017/07/13-01:06:39        ">
   <rdf:RDF xmlns:rdf="http://www.w3.org/1999/02/22-rdf-syntax-ns#">
      <rdf:Description rdf:about=""/>
   </rdf:RDF>
</x:xmpmeta>
                                                                                                    
                                                                                                    
                                                                                                    
                                                                                                    
                                                                                                    
                                                                                                    
                                                                                                    
                                                                                                    
                                                                                                    
                                                                                                    
                                                                                                    
                                                                                                    
                                                                                                    
                                                                                                    
                                                                                                    
                                                                                                    
                                                                                                    
                                                                                                    
                                                                                                    
                                                                                                    
                           
<?xpacket end="w"?></metadata>
<defs>
    <style>
      .cls-1 {
        fill: #85898c;
        fill-rule: evenodd;
      }
    </style>
  </defs>
  <path id="counsel_icon" class="cls-1" d="M575,1289v2a4.776,4.776,0,0,1-2,4,7.709,7.709,0,0,1-4,1l-0.167,3.16a0.817,0.817,0,0,1-.833.84,1.5,1.5,0,0,1-1-1v-5l1.833,0.13c0.018,0,2.522-.01,3.334-0.83a3.925,3.925,0,0,0,.833-2.52v-3.35c1.441-.57,2.479-0.68,3-2.43-1.318-.65-2.911-3.62-4-7a9.516,9.516,0,0,0-9-7v8.89h-0.833L561,1280v-9c-5.205.39-11.029,4.65-11,10a16.775,16.775,0,0,0,2.167,8.11c0.787,1.44,1.833,3.13,1.833,3.89v6a1.071,1.071,0,0,1-1,1,1.233,1.233,0,0,1-1-1v-6a5.624,5.624,0,0,0-1-2,21.691,21.691,0,0,1-3-10.27c0-4.96,5.374-11.73,13.783-11.73,8.088,0,10.767,4.18,12.325,8.27a48.165,48.165,0,0,0,2.217,4.65c1.115,2.13,1.831,3.39,1.669,4.03A4.98,4.98,0,0,1,575,1289Zm-8-4a4.608,4.608,0,0,1-.459,2.31l1.024,1.02a2.046,2.046,0,0,1,.435-0.06,1.675,1.675,0,1,1-1.667,1.68,1.651,1.651,0,0,1,.059-0.42l-0.885-.89A5.455,5.455,0,0,1,562,1290a4.988,4.988,0,0,1-5-5,5.227,5.227,0,0,1,5.167-5.11A4.945,4.945,0,0,1,567,1285Zm-5-3a2.788,2.788,0,0,0-3,3c0,1.85,1.084,3.24,2.925,3.2a4.142,4.142,0,0,0,2.4-.75l-0.069-.07,0.773-.78c0.29-.49-0.032-0.98-0.032-1.6A2.788,2.788,0,0,0,562,1282Z" transform="translate(-548 -1269)"/>
</svg>
