<svg id="组_8" data-name="组 8" xmlns="http://www.w3.org/2000/svg" width="670.719" height="209.5" viewBox="0 0 670.719 209.5">
  <metadata><?xpacket begin="﻿" id="W5M0MpCehiHzreSzNTczkc9d"?>
<x:xmpmeta xmlns:x="adobe:ns:meta/" x:xmptk="Adobe XMP Core 5.6-c142 79.160924, 2017/07/13-01:06:39        ">
   <rdf:RDF xmlns:rdf="http://www.w3.org/1999/02/22-rdf-syntax-ns#">
      <rdf:Description rdf:about=""/>
   </rdf:RDF>
</x:xmpmeta>
                                                                                                    
                                                                                                    
                                                                                                    
                                                                                                    
                                                                                                    
                                                                                                    
                                                                                                    
                                                                                                    
                                                                                                    
                                                                                                    
                                                                                                    
                                                                                                    
                                                                                                    
                                                                                                    
                                                                                                    
                                                                                                    
                                                                                                    
                                                                                                    
                                                                                                    
                                                                                                    
                           
<?xpacket end="w"?></metadata>
<defs>
    <style>
      .cls-1 {
        fill: #00ca8d;
      }

      .cls-2, .cls-6 {
        fill: #ffd02d;
      }

      .cls-3 {
        fill: #f98305;
      }

      .cls-4, .cls-5 {
        fill: #fff;
      }

      .cls-4, .cls-6 {
        fill-rule: evenodd;
      }

      .cls-5 {
        opacity: 0.4;
      }
    </style>
  </defs>
  <ellipse id="椭圆_1_拷贝" data-name="椭圆 1 拷贝" class="cls-1" cx="409.797" cy="187.328" rx="21.016" ry="20.828"/>
  <circle id="椭圆_1" data-name="椭圆 1" class="cls-2" cx="434.313" cy="200.14" r="9.469"/>
  <circle id="椭圆_1_拷贝_2" data-name="椭圆 1 拷贝 2" class="cls-3" cx="566.281" cy="32" r="15.5"/>
  <path id="高分不止仰望_超越就在当下" data-name="高分不止仰望，超越就在当下" class="cls-4" d="M108.051,491.4l-11.256.809v2.179l5.123-.36v4.448l-5.909.336v-7.322H89.876v9.861l18.175-1.011V491.4Zm8.941,14.4v-20.4l-28.464,1.483v2.448l21.724-1.123v15.139h-5.661V505.8h12.4ZM91.539,473.479H84.8v10.646l28.576-1.572v-9.366l-20.938,1.235v2.358l14.2-.831v4.6l-15.1.831v-7.906Zm-12.963-4.111v2.448l40.932-1.976v-2.471l-16.4.809-0.831-2.606H94.369l0.988,2.988Zm2.314,16.419v20.035h6.74V485.787H80.89Zm84.942-3.414L153.7,465.55h-8.11l11.188,16.194-25.835,1.213v2.448l4.718-.224-8.133,20.709h8.11L143.86,484.8l7.594-.36v18.935h-6.717v2.448h14.085V482.373h7.01Zm-41.4.2h8.829l11.1-16.014H136Zm62.925,23.27h7.369V477.611l9.3,16.958h7.75l-9.862-17.5h-7.189v-2.2l-2.157-.022,3.662-5.211,14.378-.809v-2.448l-39.2,2.179v2.448l16.377-.9-17.86,25.336h8.268l9.165-13.117v23.517Zm28.868-2.853v2.448l41.674-1.976v-2.448l-14.783.7V481.744l12.671-1.056V478.24l-12.671,1.033v-13.7h-7.368v36.5l-6.043.27V474.085h-7.369V502.7Zm59.219-2.47,10.671-1.236v-2.515l-4.223.359V470.536l3.482-.269,1.752-2.606v38.184h6.133v-35.6l3.19-.314v27.582h-1.707v2.448h7.84V466.9l-9.323.9V467.01h-5.706l0.764-1.146h-7.436l-2.112,2.449-3.325.336v31.873Zm-9.548,5.368h6.448V480.823h-2.921l5.954-15.206h-7.009l-6.875,17.295h4.4V505.89Zm61.2-20.013v-2.448l-8.851.471V472.041l10.536-.606v-2.449l-5.392.315-1.415-3.437h-6.717l1.37,3.8-7.953.449v2.449l2.831-.158v14.33Zm20.87,4.56v-2.449l-37.809,1.73v2.448l15.232-.7v4.29l-13.255.606v2.448l13.255-.606v4.649l-17.007.495v2.47l41.314-1.258v-2.448l-16.939.517v-4.739l13.322-.607v-2.448l-13.322.584v-4.29Zm-6.56-6.29h-3.145V486.6h9.593v-20.35l-10.693.831v2.448l4.245-.337v3.167l-5.391.4,0.337-6.334h-6.493l-1.078,20.6h6.492l0.315-6.109,5.818-.427v3.661Zm-5.683-5.7,0.157-3.234,5.526-.4v3.234Zm22.375,12.915V497.8H361.6v6.671h3.235V491.357h-6.74Zm69.8,6.4V484.417h-6.739v16.172l19.185-1.1v-15.3l-11.345,1.034v2.47l4.605-.426v10.152Zm-19.14,1.078-2.045-1.056,0.787-12.241h-5.819l-1.3,20.26h5.819l0.359-5.413,9.885,5.211,26.127-.921v-2.448l-25.7.92-1.371-.718V490.437l4.516-.292V487.7l-4.516.292v-6.4l4.875-.337V478.8l-6.38.427v-6.784l5.167-.359v-2.448l-5.167.359v-4.515H406.93v4.987l-5.864.4v2.448l5.864-.382v6.784l-7.009.471v2.471l8.829-.606v16.778Zm11.457-31.311V470l3.19-.225-2.426,12.4h6.694l2.517-12.848,3.617-.247v10.2h-3.123v2.449h9.862V466.179Zm25.723,12.668v2.471l8.6-.584v16.644l-1.82-.944,0.809-12.241h-5.841l-1.3,20.26H452.2l0.359-5.413,9.907,5.211,26.128-.921v-2.448l-25.7.92-1.909-1.01V490.5l3.594-.2v-2.448l-3.594.2v-6.4l3.954-.247v-2.448l-6.021.382v-6.783l4.538-.315V469.8l-4.538.292v-4.6h-6.74v5.054l-5.1.337v2.448l5.1-.337v6.806Zm23,20.148h6.178l4.134-5.7,2.314,5.166h6.268l-4.651-10.6,4.179-5.772v-7.008H481.83V482.6l-0.966,1.325-0.607-1.438V474l7.661-.494v-2.224l-7.661.517v-6.267h-6.133V472.2l-1.685.09v2.224l1.685-.113V483.2l2.786,6.177-2.9,3.975v-1.212l-2.292.314V471.435h-6.133v24.1l7.616-1.055Zm16.984-34.118h-4.673l1.191,4.38h4.83Zm14.243,37.083H497.42v2.448h8.874v-14.42l2.314,10.22h5.28l-0.472,4.245h6.178l3.1-27.447,10.918-.854v-2.448l-10.648.831,1.168-10.287h-6.178l-1.213,10.759-3.572.269v2.448l3.28-.247-2.494,22.169-2.381-9.793h-5.28v-2.134l6.133-.449v-2.448h-0.022v-8.445h0.022v-2.471l-11.614.943v2.471l5.459-.449v8.4l-6.246.472V475.567h-6.133v14.42l6.268-.449v13.769ZM492.1,470.626v2.448l22.061-1.55v-2.448l-7.413.517-1.528-3.841H498.5l1.5,4.312Zm36.776,9.928h-6.133v25.021l11.839-1.033v-2.471l-5.706.607V480.554Zm2.157-14.33h-5.751l1.572,6.513h5.931Zm-31.047,25.942H494.59l-2.808,10.691h5.481Zm44.144,13.724H551.5V481.946h-2.224l5.414-8.939,24.33-1.28v-2.449l-22.8,1.191,2.921-4.852h-8.357l-3.123,5.3-8.537.449v2.448l7.032-.359-7.3,12.421h5.279V505.89Zm8.672-3.369v2.47l27.025-1.235v-2.448l-10.8.494V487.247l8.626-.494v-2.448l-8.626.494v-8.513h-7.369V485.2l-7.032.4v2.449l7.032-.382v14.465Zm69.822,0.269V478.577l-13.951.764V465.527H601.3v14.218l-14.22.786v2.449l28.171-1.55v8.131l-26.307,1.415v2.47l26.307-1.437v9.276l-28.6,1.572v2.449l35.945-1.954V502.79h0.022Zm-11.5-25.628H619l4.044-10.085h-7.414Zm-23.971-9.478,3.932,10.264h7.885l-4.426-10.264h-7.391Zm84.425,1.3v-2.448l-41.022,2v2.471l15.277-.764v35.533h7.66V478.083l8.088,14.645h8.11l-8.47-14.645h-7.728v-8.2Z" transform="translate(-38.219 -431.5)"/>
  <path id="注意了_一大波_牛人_即将来袭_敢梦言_亦言勇_我们在拼搏_的路上勇往直前..." data-name="注意了，一大波“牛人”即将来袭。敢梦言、亦言勇！我们在拼搏 的路上勇往直前..." class="cls-4" d="M86.319,570.514q1.562,1.251,2.969,2.578l0.859-.859q-1.33-1.173-3.047-2.579Zm-0.625,5a31.726,31.726,0,0,1,2.969,2.5l0.86-.938q-1.641-1.406-3.048-2.422Zm1.641,11.875q0.78-2.734,2.032-6.875-0.469-.156-1.172-0.469a67.2,67.2,0,0,1-2.11,6.8Zm3.907-13.672h12.424v-1.094H91.242v1.094Zm0.7,6.016h10.862v-1.016H91.945v1.016Zm-1.563,6.8h13.753v-1.015H90.382v1.015Zm6.329-.234h1.172V573.4H96.712v12.891Zm-0.938-16.25a24.72,24.72,0,0,1,1.485,2.266l1.016-.7q-0.861-1.249-1.563-2.188ZM120.7,583.561q1.094,1.1,2.5,2.656l0.938-.7q-1.564-1.562-2.657-2.578Zm-6.876-.469a22.907,22.907,0,0,1,1.953,1.875l0.86-.7a16.508,16.508,0,0,0-1.954-1.8Zm-8.049,3.047a6.277,6.277,0,0,1,1.016.547,22.464,22.464,0,0,0,1.719-3.36l-1.016-.312a10.457,10.457,0,0,1-1.719,3.125h0Zm4.845-.469q0,1.641,2.188,1.641h4.376q1.875,0,2.344-1.172a11.054,11.054,0,0,0,.312-1.25,9.134,9.134,0,0,1-1.094-.391c-0.052.469-.105,0.86-0.156,1.172a1.332,1.332,0,0,1-1.485.781h-4.141q-1.172,0-1.172-.859V583.17h-1.172v2.5Zm-2.344-3.437h1.094v-5.86h-1.094v5.86Zm0.468-4.922h12.19v-0.86h-12.19v0.86Zm11.565,4.922H121.4v-5.86H120.31v5.86Zm-11.486,0h12.111v-0.86H108.824v0.86Zm0-2.5h12.111v-0.782H108.824v0.782Zm-2.266-7.891H123.28v-0.859H106.558v0.859Zm-0.7,3.281h18.129v-0.859H105.854v0.859Zm8.2-5.625a21.548,21.548,0,0,1,.86,2.188l1.015-.391q-0.391-1.093-.859-2.109Zm-4.141,3.2q0.938,1.017,1.719,2.032l0.859-.782q-0.861-.937-1.8-1.875Zm6.8,2.266h1.172q0.938-1.171,1.875-2.422l-1.094-.469a25.78,25.78,0,0,1-1.953,2.891h0Zm17.894,9.141a1.555,1.555,0,0,1-1.8,1.718q-1.564,0-3.126-.078,0.156,0.7.235,1.328,1.8,0.078,3.125.078,2.891,0,2.891-2.968V576.92q3.672-2.343,6.955-4.531v-1.563H126.405V572H141.33q-3.048,2.032-6.72,4.375v7.735Zm15.941,0.468v-2.109h-2.188v2.187h1.328a3.915,3.915,0,0,1-1.406,3.282l0.468,0.468a4.228,4.228,0,0,0,1.8-3.828h0Zm15.081-5.937h18.441v-1.328H165.632v1.328Zm20.316-2.813h17.816v-1.172H185.948v1.172Zm8.439-.7q1.25,8.985,8.6,12.031,0.39-.548.859-1.171-7.19-2.656-8.439-11.25Zm-0.312-.234q-0.157,7.658-8.283,11.562a7.571,7.571,0,0,1,.781,1.172q8.517-4.454,8.518-12.109a0.8,0.8,0,0,1,.156-0.313,0.8,0.8,0,0,0,.156-0.312q0.077-2.734.078-5.391h-1.328q0,2.736-.078,5.391h0ZM206.187,587l1.094,0.391q1.092-4.374,1.64-6.8-0.392-.156-1.015-0.469A66.809,66.809,0,0,1,206.187,587h0Zm-0.391-11.64q1.407,1.172,2.579,2.265l0.781-.859q-1.1-.859-2.735-2.11Zm0.781-4.766a29.423,29.423,0,0,1,2.657,2.5l0.86-.859q-1.331-1.173-2.813-2.344Zm10.706,6.562h1.172V569.42h-1.172v7.734Zm-4.767.7h9.221v-1.016h-9.221v1.016Zm8.908-.313q-1.954,6.407-9.611,9.141c0.26,0.363.494,0.7,0.7,1.015q7.736-2.89,10-9.843V576.92h-1.094v0.625Zm-9.064-4.531h10.861V571.92H212.36v1.094Zm-0.469,5.156q0,5.7-2.579,8.438a8.049,8.049,0,0,1,.938.937q2.813-3.046,2.813-9.453V571.92h-1.172v6.25Zm10.393-5.156-0.469,2.265q0.7,0.158,1.172.235l0.469-2.422V571.92h-1.172v1.094Zm-8.362,4.687q1.484,7.11,9.143,9.844,0.31-.391.938-1.172-7.347-2.109-9.065-8.906Zm26.568-4.843v1.875h2.032v-2.11h-1.25a3.929,3.929,0,0,1,1.328-3.2l-0.469-.391a4.381,4.381,0,0,0-1.641,3.829h0Zm-3.594,0v1.875h2.11v-2.11h-1.329a3.815,3.815,0,0,1,1.407-3.2l-0.469-.391a4.3,4.3,0,0,0-1.719,3.829h0Zm11.955,1.718h13.44v-1.015h-13.44v1.015Zm-2.969,6.407h18.05v-1.094h-18.05v1.094Zm8.517,6.562h1.25V569.5H254.4v18.047Zm-8.205-9.609a10.833,10.833,0,0,0,1.094.547,55.938,55.938,0,0,0,3.751-7.735l-1.094-.39a41.085,41.085,0,0,1-3.751,7.578h0Zm19.614,8.359a5.757,5.757,0,0,1,.937,1.016q8.283-5.157,8.752-17.578h-1.25q-0.392,11.952-8.439,16.562h0Zm8.6-13.2q2.031,10.157,8.6,13.984,0.468-.548,1.015-1.172-6.642-3.2-8.829-13.515Zm14.534-2.031v-1.953h-2.031v2.031h1.328a4.331,4.331,0,0,1-1.406,3.359l0.468,0.391a4.637,4.637,0,0,0,1.641-3.828h0Zm3.595,0v-1.953h-2.11v2.031h1.407a4.331,4.331,0,0,1-1.407,3.359l0.391,0.391a4.549,4.549,0,0,0,1.719-3.828h0Zm24.145,16.562h1.172V570.748h-1.172v16.875Zm0.547-15.781h5.314v-1.094h-5.314v1.094Zm4.689,9.844a1.22,1.22,0,0,1-1.251,1.484q-1.171,0-2.266-.078,0.156,0.7.235,1.172h2.344q2.031,0,2.032-2.5V570.748h-1.094v10.938Zm-14.144-6.172h5.861v-0.938h-5.861v0.938Zm0.078-3.985h5.626v-1.015h-5.626v1.015Zm5.236,8.047h1.172v-9.062h-1.172v9.062Zm-5.392,0h5.861v-0.937h-5.861v0.937Zm-0.625,5.313a1.408,1.408,0,0,1-.547,1.094L307.378,587a10.958,10.958,0,0,1,.938-0.7q1.8-.781,5.079-2.109l-0.312-1.094q-3.282,1.405-4.845,2.031V570.514h-1.172v14.375Zm4.3-3.516q1.328,2.032,2.5,4.141l1.016-.625q-1.251-2.109-2.657-4.063Zm20.082-.781h12.737v-0.938H331.446v0.938Zm3.047-8.047h8.439v-0.937h-8.439v0.937Zm7.814-.234q-3.594,3.75-10.705,5.39a8.044,8.044,0,0,1,.469.938q8.359-2.187,11.174-6.016v-1.015h-0.938v0.7Zm-11.174,1.484a4.144,4.144,0,0,1,.625.781,28.757,28.757,0,0,0,5.626-4.531l-0.7-.625a23.913,23.913,0,0,1-5.548,4.375h0Zm3.36,0.625a31.562,31.562,0,0,1,2.657,2.109l0.781-.7a34.045,34.045,0,0,0-2.735-2.031Zm5.861,10.7a0.935,0.935,0,0,1-1.016,1.094,20.584,20.584,0,0,1-2.344-.156,10.685,10.685,0,0,1,.234,1.25h2.344q1.876,0,1.876-2.11v-7.89h-1.094v7.812ZM333.634,582q1.014,1.171,2.266,2.656l0.859-.7q-1.406-1.484-2.422-2.578Zm-4.533,5.7h1.016V569.5H329.1v18.2Zm-3.438-14.609q0.938,2.109,1.719,3.984l0.938-.547q-0.781-1.875-1.8-3.828Zm-0.234,9.687,0.625,1.016q1.718-1.717,3.829-3.906-0.157-.39-0.391-1.094-2.033,2.033-4.063,3.984h0ZM347,573.014h15.862v-0.938H347v0.938Zm-1.094,6.328h17.972V578.4H345.9v0.938Zm8.439,8.281h1.094V569.342h-1.094v18.281Zm-5.7-12.89q1.014,1.172,2.344,2.734l0.859-.7q-1.485-1.562-2.5-2.735Zm9.142,2.109,0.86,0.547a30.518,30.518,0,0,0,2.5-2.813l-1.016-.547q-1.015,1.331-2.344,2.813h0ZM345.9,585.67a11.226,11.226,0,0,1,.7.938,18.891,18.891,0,0,0,7.97-7.344h-1.016a19.068,19.068,0,0,1-7.657,6.406h0Zm9.064-6.641a19.375,19.375,0,0,0,8.127,6.954c0.312-.364.6-0.7,0.859-1.016a19.706,19.706,0,0,1-8.83-6.875Zm11.408-6.25h17.5v-1.015h-17.5v1.015Zm9.612,1.485h0.937v-1.953h-0.937v1.953Zm0,1.484q0,2.109,1.719,2.11h3.907a1.84,1.84,0,0,0,1.875-.86,7.094,7.094,0,0,0,.469-1.562,4.7,4.7,0,0,1-.859-0.469,3.464,3.464,0,0,1-.391,1.562,1.6,1.6,0,0,1-1.485.469h-3.36q-0.937,0-.938-1.328v-1.562h-0.937v1.64Zm-4.845-1.406a10.141,10.141,0,0,1-5.157,2.812q0.31,0.783.547,1.407a10.1,10.1,0,0,0,7.579-9.219H373.1a9.476,9.476,0,0,1-1.954,5h0Zm0.7,2.187q0.469,0.548.7,0.86a48.612,48.612,0,0,0,9.142-3.2l-0.7-.782a35.035,35.035,0,0,1-9.143,3.125h0Zm5.548-6.25q0.859,0.393,2.188,1.016l0.547-.781q-1.1-.47-2.266-1.016ZM365.828,580.9h18.206v-0.937H365.828V580.9Zm7.188-2.812q1.015,1.405,1.329,1.8l0.937-.547a14.751,14.751,0,0,0-1.406-1.719Zm-7.267,6.953a8.755,8.755,0,0,1,.547.938q6.1-2.11,8.986-5.313l-1.172-.156a21.476,21.476,0,0,1-8.361,4.531h0Zm5.079-1.562v2.265a1.481,1.481,0,0,1-.39,1.094l0.7,0.859a4.553,4.553,0,0,1,1.172-.468,38.817,38.817,0,0,1,3.751-1.094v-1.094l-4.142,1.25v-3.359ZM377,583.951a2.9,2.9,0,0,1,.625.7q2.5-1.092,4.844-2.109l-0.781-.781A48.846,48.846,0,0,1,377,583.951h0Zm-2.892-3.359q2.266,5.235,9.3,6.484a10.319,10.319,0,0,1,.547-1.093q-6.721-.86-8.986-5.625Zm16.332,2.109a1.972,1.972,0,0,1,1.875,1.953,1.892,1.892,0,0,1-3.751,0,1.971,1.971,0,0,1,1.876-1.953h0Zm0,4.453a2.539,2.539,0,0,0,2.657-2.5,2.658,2.658,0,1,0-5.314,0,2.6,2.6,0,0,0,2.657,2.5h0Zm15.55-12.656h9.455v-0.937h-9.455V574.5Zm2.031,3.438h5.236V577h-5.236v0.938Zm-0.078,3.359h5.236v-0.859h-5.236v0.859Zm-0.7,3.281h1.094v-10.39h-1.094v10.39Zm5.626,3.047h1.016V574.108h-1.016v13.515Zm-5.626-16.484h5.626V570.2h-5.626v0.938Zm4.688,2.656h1.094l0.547-3.594h-1.016Zm-6.251,10.547,0.156,1.094q4.766-.625,9.768-1.25V583.17q-4.846.625-9.924,1.172h0Zm11.956-10.7h6.251v-1.016h-6.251v1.016Zm-2.892,3.437q0.312,0.391.626,0.86a27.9,27.9,0,0,0,3.985-8.282l-1.094-.312a27.239,27.239,0,0,1-3.517,7.734h0Zm5.939,2.032a13.748,13.748,0,0,1-5.86,7.578,10.79,10.79,0,0,1,.781,1.015,15.868,15.868,0,0,0,6.173-8.359,28.663,28.663,0,0,0,.938-6.016H421.62a25.677,25.677,0,0,1-.938,5.782h0Zm-4.063-4.454a19.146,19.146,0,0,0,2.657,8.672,17.424,17.424,0,0,0,4.375,4.141q0.39-.47.86-1.016a13.022,13.022,0,0,1-4.532-4.062q-2.11-3.282-2.423-9.375ZM431,580.2h9.611v-0.937H431V580.2Zm8.986-.312a17.411,17.411,0,0,1-5.236,4.3,28.428,28.428,0,0,1-8.2,2.812,5.446,5.446,0,0,1,.547,1.094,28.776,28.776,0,0,0,8.439-3.125,17.966,17.966,0,0,0,5.548-4.766v-0.937h-1.094v0.625ZM426.308,582.7l0.625,0.782a21,21,0,0,0,6.252-5.469l-0.938-.469a16.8,16.8,0,0,1-5.939,5.156h0Zm4.611-.156q2.031,1.251,3.985,2.734l0.547-.937q-2.034-1.327-4.064-2.578Zm-4.533-9.922H434.2v-0.937h-7.814v0.937Zm9.065,0h8.126v-0.937h-8.126v0.937Zm-5.47,5.313H431V569.42h-1.016v8.516Zm8.439,0h1.016V569.42H438.42v8.516Zm-12.737-1.25a5.038,5.038,0,0,1,.469,1.093,19.543,19.543,0,0,0,4.845-5.39h-0.938a16.346,16.346,0,0,1-4.376,4.3h0Zm5-2.422q1.483,0.781,2.969,1.719l0.626-.938q-1.641-.858-3.048-1.484Zm3.438,2.265a5.845,5.845,0,0,1,.469,1.016,19.849,19.849,0,0,0,4.767-5.156H438.42a16.265,16.265,0,0,1-4.3,4.14h0Zm4.689-3.828a10.467,10.467,0,0,0,4.844,4.766q0.312-.7.469-1.016a10.306,10.306,0,0,1-4.923-4.3Zm9.064,3.36h14.378v-1.016H447.875v1.016Zm0,2.968h14.378v-1.015H447.875v1.015Zm0.313,8.438h1.25v-6.484h-1.25v6.484Zm0.625-5.547h12.424v-0.937H448.813v0.937Zm11.8,5.547h1.25v-6.484h-1.25v6.484Zm-11.956-.859h12.425V585.67H448.656v0.938ZM446,573.092h18.128v-1.016H446v1.016Zm7.97-3.2q1.093,1.563,1.406,2.031l0.938-.625a18.745,18.745,0,0,0-1.406-1.953Zm17.66,17.344,0.937-.782-3.829-4.218-0.859.7Zm19.925-8.985a9.548,9.548,0,0,1-5.391,8.125c0.312,0.52.547,0.938,0.7,1.25a11.105,11.105,0,0,0,5.782-9.375,43.793,43.793,0,0,0,.157-4.765h-1.094a45.157,45.157,0,0,1-.157,4.765h0Zm5.627,6.563a1,1,0,0,1-1.094,1.172,23.556,23.556,0,0,1-2.579-.157q0.156,0.78.234,1.328h2.579q2.031,0,2.032-2.187V573.483h-1.172v11.328Zm2.969-8.438q1.483,3.126,2.657,6.328l1.094-.39q-1.251-3.125-2.735-6.328Zm-14.378,5.547,1.016,0.391q1.484-2.891,2.735-5.938l-1.016-.39a52.35,52.35,0,0,1-2.735,5.937h0Zm0.235-8.281h18.284v-1.016H486.008v1.016Zm8.048-3.438q1.094,1.72,1.328,2.188l1.016-.7a24.9,24.9,0,0,0-1.484-2.11Zm13.831,5.86h14.378v-1.016H507.887v1.016Zm0,2.968h14.378v-1.015H507.887v1.015Zm0.312,8.438h1.251v-6.484H508.2v6.484Zm0.626-5.547h12.424v-0.937H508.825v0.937Zm11.8,5.547h1.25v-6.484h-1.25v6.484Zm-11.956-.859h12.425V585.67H508.668v0.938Zm-2.656-13.516H524.14v-1.016H506.012v1.016Zm7.97-3.2q1.094,1.563,1.406,2.031l0.938-.625a18.9,18.9,0,0,0-1.406-1.953Zm13.6,11.094h1.016v-7.188h-1.016v7.188Zm0.625-6.329h13.362v-0.859H528.2v0.859Zm12.815,6.329h1.094v-7.188h-1.094v7.188ZM528.2,577.311h13.362v-0.938H528.2v0.938Zm0,2.578h13.362v-0.86H528.2v0.86Zm6.1,0.859h1.094v-6.562H534.3v6.562Zm-6.8-9.609h13.753V570.2H527.5v0.938Zm13.6-.469-7.267,2.5,1.484,0.469,6.642-2.344V570.2H541.1v0.469Zm-10.706,1.406q1.8,0.783,4.064,2.032l1.719-.157q-2.971-1.64-5.079-2.656ZM526.562,583.4h15v-0.7h-15v0.7Zm14.222,2.032q-0.158,1.014-2.032,1.015-2.109,0-3.829-.078a4.2,4.2,0,0,1,.235.86h3.594q2.89,0,3.2-1.719,0.156-1.094.313-2.813h-1.094q-0.235,1.875-.391,2.735h0Zm-8.205-2.657q-0.625,2.736-6.485,4.063l0.7,0.7q6.171-1.405,6.954-4.687a12.86,12.86,0,0,0,.391-1.954H532.97a12.982,12.982,0,0,1-.391,1.875h0ZM550.786,570.2h-1.953l0.468,13.282h1.016Zm-1.719,15.313v1.8h1.563v-1.8h-1.563Zm16.644-9.219h18.6v-1.25h-18.6v1.25Zm0.469-5.156a6.965,6.965,0,0,1,.312,1.328q3.752-.39,7.892-0.938l-0.312-1.25q-3.829.548-7.892,0.86h0Zm3.829,13.359q0,1.407-1.016,1.406a25.679,25.679,0,0,1-2.657-.156q0.156,0.7.313,1.563h2.344q2.109,0,2.11-2.735V571.529h-1.094V584.5Zm-4.454-3.75,0.312,1.406q4.142-1.014,9.064-2.109a13.221,13.221,0,0,1,.079-1.484q-4.613,1.25-9.455,2.187h0Zm10.939-3.437q0.938,7.578,3.751,9.609a2.212,2.212,0,0,0,1.485.625q1.248,0,1.719-1.953,0.234-1.327.547-3.516a4.524,4.524,0,0,1-1.172-.468q-0.235,2.031-.469,3.515-0.158,1.327-1.25.781-2.58-1.717-3.517-8.593-0.313-3.438-.39-7.578H576.1q0.154,4.844.39,7.578h0Zm-4.141,7.343a8.993,8.993,0,0,1,.547,1.407,34.37,34.37,0,0,0,10.549-7.344l-0.7-1.094a27.36,27.36,0,0,1-10.392,7.031h0Zm6.876-13.906q1.483,1.564,2.735,3.125l0.86-1.015q-1.251-1.407-2.813-2.891Zm9.064,16.8h0.938V575.514h-0.938v12.031Zm-2.656-8.984a11.726,11.726,0,0,1,.469,1.093,36.367,36.367,0,0,0,4.688-9.765l-1.016-.391a30.065,30.065,0,0,1-4.141,9.063h0Zm6.8,8.828h1.172V573.248h-1.172v14.141Zm4.532-15.547h5.626v-1.094h-5.626v1.094Zm5.079,12.891a1.347,1.347,0,0,1-1.563,1.484,26.576,26.576,0,0,1-2.735-.156q0.156,0.468.313,1.093,1.25,0.078,2.5.079,2.655,0,2.656-2.579V570.748h-1.172v13.985Zm-9.377-14.375q1.329,1.172,2.345,2.187l0.859-.859q-1.329-1.173-2.422-2.11Zm19.223,8.828h11.1V578.17h-11.1v1.016Zm-1.016,6.953h13.206v-1.016H610.876v1.016Zm5.861-.391h1.25V574.342h-1.25v11.406Zm-10.784-13.2h18.129v-1.016H605.953v1.016Zm2.735,14.922h1.172V577h-1.172v10.469Zm-2.969-6.953a7.028,7.028,0,0,1,.547,1.015q4.375-4.218,6.876-11.875l-1.172-.312a26.681,26.681,0,0,1-6.251,11.172h0Zm26.724-6.172h11.33v-1.094h-11.33v1.094Zm-0.782,6.328H644.4v-1.094H631.661v1.094Zm8.362,7.031H641.2V573.873h-1.172V587.7Zm-5-8.828a11.053,11.053,0,0,1-.782,4.844A8.486,8.486,0,0,1,631.271,587q0.39,0.39.781,0.86a9,9,0,0,0,3.2-3.516,12.937,12.937,0,0,0,.859-5.469v-5.156h-1.093v5.156Zm-1.094-8.515q1.014,1.015,2.031,2.109l0.782-.859q-0.939-.937-2.11-2.032Zm4.844,3.046,0.938,0.469q1.249-1.8,2.579-3.672l-1.016-.7q-1.173,2.032-2.5,3.906h0Zm-12.815.7h5.861V573.17h-5.861v0.938Zm2.5,11.406a0.76,0.76,0,0,1-.86.859q-0.625,0-1.8-.078a5.684,5.684,0,0,1,.313,1.172,18.444,18.444,0,0,0,2.109-.078,1.6,1.6,0,0,0,1.485-1.641V569.5h-1.25v16.016Zm-2.579-6.172,0.156,1.172q2.814-.937,5.783-1.875a7.07,7.07,0,0,1-.078-1.016q-2.971.938-5.861,1.719h0Zm19.926-5.234h5.548v-1.016H645.8v1.016Zm2.422,11.328a0.691,0.691,0,0,1-.781.781c-0.418,0-.99-0.027-1.719-0.078a11.6,11.6,0,0,1,.234,1.172,16.227,16.227,0,0,0,2.032-.078,1.566,1.566,0,0,0,1.406-1.641V569.5h-1.172v15.938Zm-2.5-6.172,0.156,1.172q2.655-.937,5.47-1.8a6.869,6.869,0,0,0-.078-1.094q-2.736.938-5.548,1.719h0Zm6.407,1.562h1.016v-6.953h-1.016v6.953Zm0.391-6.093h10v-0.86h-10v0.86Zm9.533,5.937h1.016v-6.8h-1.016v6.8Zm-9.533-3.594h10.158v-0.781H652.525v0.781Zm0,2.422h10.158v-0.781H652.525V579.5Zm-1.172-7.031h12.659v-0.938H651.353v0.938Zm-0.235,10.391h13.128V581.92H651.118v0.938Zm6.017-2.11h1.016V569.576h-1.016v11.172Zm2.345-10.781q0.938,0.7,1.875,1.484l0.7-.625q-0.861-.624-1.875-1.406Zm0.625,15q0,1.484-1.719,1.484-1.173,0-2.267-.078a5.91,5.91,0,0,1,.235,1.016h2.188q2.655,0,2.657-2.11v-4.531h-1.094v4.219Zm-6.642-1.016q1.094,0.861,2.109,1.8l0.86-.781q-1.017-.78-2.188-1.719ZM306.519,605.4h7.111v-1.015h-7.111V605.4Zm6.095,10.938a1.736,1.736,0,0,1-1.953,1.875q-0.939,0-2.423-.156a7.837,7.837,0,0,1,.235,1.172q1.327,0.077,2.266.078a2.625,2.625,0,0,0,2.969-2.969q0.156-2.655.234-11.953H312.77q0,9.063-.156,11.953h0Zm-7.97-7.891q0.546,0.391,1.016.782a65.054,65.054,0,0,0,2.656-7.422l-1.015-.547a44.964,44.964,0,0,1-2.657,7.187h0Zm2.344,1.25q1.483,1.955,2.813,3.985l1.016-.782q-1.407-1.952-2.891-3.828Zm-9.924,9.688h1.172V604.545h-1.172v14.844Zm0.469-13.75h5.939v-1.094h-5.939v1.094Zm5.157,13.672h1.172V604.545H302.69v14.766Zm-5.235-1.485h6.1v-1.172h-6.1v1.172Zm0.078-6.172h5.939v-1.093h-5.939v1.093Zm1.328-6.953h1.251q0.545-1.327,1.172-2.89l-1.251-.235a25.163,25.163,0,0,1-1.172,3.125h0ZM325.2,619.623h1.016V612.67H325.2v6.953Zm0.781-5.937h6.642V612.67h-6.642v1.016Zm6.408,6.015H333.4V612.67h-1.015V619.7Zm-6.486-.937h6.642v-1.016H325.9v1.016Zm0.469-14.375h6.8v-1.016h-6.8v1.016Zm6.251-.235a15.327,15.327,0,0,1-8.595,7.11q0.31,0.625.547,1.172a17.83,17.83,0,0,0,8.908-7.891v-1.172h-0.86v0.781Zm-8.752,2.735a4.9,4.9,0,0,1,.625,1.015,25.327,25.327,0,0,0,3.517-6.171l-1.016-.391a21.88,21.88,0,0,1-3.126,5.547h0Zm2.11-1.8a12.448,12.448,0,0,0,8.283,6.953,5.315,5.315,0,0,1,.469-1.25,11.381,11.381,0,0,1-8.2-6.484Zm-8.361,2.891h1.016v-5.547h-1.016v5.547Zm0.625-4.532h4.142v-0.937H318.24v0.937Zm3.907,4.532h1.094v-5.547h-1.094v5.547Zm-3.829,0h4.142v-0.938h-4.142v0.938Zm2.345,4.375H323.4v-1.016h-2.734v1.016Zm-0.391,4.609h1.016v-9.219h-1.016v9.219Zm-2.891.7h0.937v-7.422h-0.937v7.422Zm-1.016,0,0.312,1.094q3.751-.937,7.111-1.719a4.662,4.662,0,0,1-.078-1.016q-3.126.783-7.345,1.641h0Zm28.677-9.062h8.127v-1.172h-8.127v1.172Zm-8.517,9.843h18.129v-1.093H336.525v1.093Zm7.5-.781h1.328V601.733h-1.328V617.67Zm14.143-4.687h1.016v-7.188H358.17v7.188Zm0.625-6.329h13.362v-0.859H358.8v0.859Zm12.815,6.329H372.7v-7.188H371.61v7.188ZM358.8,609.311h13.362v-0.938H358.8v0.938Zm0,2.578h13.362v-0.86H358.8v0.86Zm6.095,0.859h1.094v-6.562H364.89v6.562Zm-6.8-9.609h13.753V602.2H358.092v0.938Zm13.6-.469-7.267,2.5,1.485,0.469,6.642-2.344V602.2h-0.86v0.469Zm-10.7,1.406q1.8,0.783,4.063,2.032l1.719-.157q-2.97-1.64-5.079-2.656ZM357.154,615.4h15v-0.7h-15v0.7Zm14.222,2.032q-0.157,1.014-2.032,1.015-2.109,0-3.829-.078a4.2,4.2,0,0,1,.235.86h3.594q2.891,0,3.2-1.719,0.156-1.094.312-2.813h-1.094q-0.234,1.875-.39,2.735h0Zm-8.2-2.657q-0.627,2.736-6.486,4.063l0.7,0.7q6.171-1.405,6.954-4.687a12.984,12.984,0,0,0,.391-1.954h-1.172a13.118,13.118,0,0,1-.391,1.875h0Zm16.175,4.844h1.172v-8.828h-1.172v8.828Zm-2.422-5.781a30.269,30.269,0,0,0,5.782-7.031l-1.094-.469a21.138,21.138,0,0,1-5.235,6.328,7.393,7.393,0,0,1,.547,1.172h0Zm0.156-6.016a23.845,23.845,0,0,0,5.157-5.625l-1.016-.547a20.238,20.238,0,0,1-4.688,5.157q0.312,0.548.547,1.015h0Zm5.782-2.109h11.487V604.7H382.862v1.016Zm0.7,6.172h10v-1.094h-10v1.094Zm-1.407,6.8h12.659v-1.094H382.159v1.094Zm5.782-.313h1.094V605.4h-1.094v12.969Zm-0.859-16.25q0.624,0.938,1.406,2.266l0.938-.781q-0.861-1.249-1.485-2.188Zm11.877,16.25h1.172V606.108h-1.172v12.265Zm0.469-11.328H411.54v-0.937H399.428v0.937Zm11.565,11.328h1.094V606.029h-1.094v12.344Zm-14.534.469h18.363V617.9H396.459v0.938Zm3.047-8.828h12.112v-0.938H399.506v0.938Zm0,2.89H411.7v-0.937h-12.19V612.9Zm0.078,2.969H411.7v-0.937H399.584v0.937ZM396.85,604h17.581v-0.937H396.85V604Zm8.126,2.422h1.094v-5.078h-1.094v5.078Zm11.487-1.172h18.128v-0.937H416.463v0.937Zm1.8,6.406h6.8v-0.937h-6.8v0.937Zm0,3.282h6.8v-0.86h-6.8v0.86Zm-0.547,4.687h1.016V607.436h-1.016v12.187Zm0.391-11.25h7.5v-0.937h-7.5v0.937Zm6.407,8.828a0.934,0.934,0,0,1-1.016,1.094H421.62a3.47,3.47,0,0,1,.234,1.094h1.72a1.8,1.8,0,0,0,2.031-2.031v-9.375h-1.094V617.2ZM421,601.967a20.263,20.263,0,0,1,1.563,2.187l1.016-.7q-0.861-1.248-1.563-2.109Zm6.486,1.484,0.937,0.7a25.013,25.013,0,0,0,1.641-1.953l-1.016-.859q-0.782,1.1-1.562,2.109h0Zm0.859,12.813h1.016v-8.438H428.34v8.438Zm3.829,0.781a1.042,1.042,0,0,1-1.094,1.25,17.952,17.952,0,0,1-2.188-.156,5.684,5.684,0,0,1,.313,1.172q1.248,0.076,1.953.078,2.111,0,2.11-2.266v-10.39h-1.094v10.312Zm7.267-.859H437.4v1.875h2.032v-1.875Zm6.251,0h-2.031v1.875h2.031v-1.875Zm6.251,0h-2.031v1.875h2.031v-1.875Z" transform="translate(-38.219 -431.5)"/>
  <rect id="矩形_12" data-name="矩形 12" class="cls-5" x="298.125" y="104.469" width="78" height="2"/>
  <path id="_" data-name="“" class="cls-6" d="M56.661,444.015q0.938-10.62,10.94-12.5v5a3.721,3.721,0,0,0-2.5,1.875,4.312,4.312,0,0,0-1.563,2.812v1.875h4.688V455.89H56.661V444.015Zm-18.441,0q1.875-11.25,10.627-12.5v5A7.375,7.375,0,0,0,45.1,441.2v1.875h4.689V455.89H38.22V444.015Z" transform="translate(-38.219 -431.5)"/>
  <path id="_2" data-name="”" class="cls-6" d="M708.949,523.223q-0.937,10.628-10.94,13.125v-5a13.037,13.037,0,0,0,2.5-1.875,7.654,7.654,0,0,0,1.563-2.812v-2.5h-5V511.974h11.878v11.249Zm-18.129,0q-0.63,11.25-10.94,13.125v-5a5.931,5.931,0,0,0,4.064-4.687v-2.5h-5V511.974H690.82v11.249Z" transform="translate(-38.219 -431.5)"/>
</svg>
