<svg xmlns="http://www.w3.org/2000/svg" width="29.063" height="32" viewBox="0 0 29.063 32">
  <metadata><?xpacket begin="﻿" id="W5M0MpCehiHzreSzNTczkc9d"?>
<x:xmpmeta xmlns:x="adobe:ns:meta/" x:xmptk="Adobe XMP Core 5.6-c142 79.160924, 2017/07/13-01:06:39        ">
   <rdf:RDF xmlns:rdf="http://www.w3.org/1999/02/22-rdf-syntax-ns#">
      <rdf:Description rdf:about=""/>
   </rdf:RDF>
</x:xmpmeta>
                                                                                                    
                                                                                                    
                                                                                                    
                                                                                                    
                                                                                                    
                                                                                                    
                                                                                                    
                                                                                                    
                                                                                                    
                                                                                                    
                                                                                                    
                                                                                                    
                                                                                                    
                                                                                                    
                                                                                                    
                                                                                                    
                                                                                                    
                                                                                                    
                                                                                                    
                                                                                                    
                           
<?xpacket end="w"?></metadata>
<defs>
    <style>
      .cls-1 {
        fill: #85898c;
        fill-rule: evenodd;
      }
    </style>
  </defs>
  <path id="phone_icon" class="cls-1" d="M51.157,1303a5.413,5.413,0,0,1-1.913-.25H49.182A25.622,25.622,0,0,1,29,1277.83a6.867,6.867,0,0,1,6.851-6.83H36.1c3.395,0.12,6.656,2.68,6.9,6,0.247,3.26-2.914,6.08-6,7-0.247.06,0.062-.12,0,0a1.82,1.82,0,0,0,0,1,21.436,21.436,0,0,0,7,9,3.465,3.465,0,0,0,2-1,6.056,6.056,0,0,1,5-3,3.352,3.352,0,0,1,1,0,7.037,7.037,0,0,1,6,6,5.61,5.61,0,0,1-1.72,4.78,6.9,6.9,0,0,1-5.123,2.22h0ZM31,1278c0,10.83,8.446,20.78,19,23h0a2.748,2.748,0,0,0,1,0,7.107,7.107,0,0,0,4-2,3.535,3.535,0,0,0,1-3,5.263,5.263,0,0,0-4.226-4.02,4.463,4.463,0,0,0-4.505,2.28,3.149,3.149,0,0,1-2.777,1.72,2.884,2.884,0,0,1-1.728-.55,21.124,21.124,0,0,1-7.653-9.23,2.921,2.921,0,0,1,.062-2.58,3.44,3.44,0,0,1,1.975-1.73c1.975-.61,4.038-2.8,3.853-4.89-0.185-2.15-2.778-3.88-5-4h0c-2.407.12-5,2.6-5,5h0Z" transform="translate(-29 -1271)"/>
</svg>
