<svg id="组_9" data-name="组 9" xmlns="http://www.w3.org/2000/svg" width="526.031" height="104.44" viewBox="0 0 526.031 104.44">
  <metadata><?xpacket begin="﻿" id="W5M0MpCehiHzreSzNTczkc9d"?>
<x:xmpmeta xmlns:x="adobe:ns:meta/" x:xmptk="Adobe XMP Core 5.6-c142 79.160924, 2017/07/13-01:06:39        ">
   <rdf:RDF xmlns:rdf="http://www.w3.org/1999/02/22-rdf-syntax-ns#">
      <rdf:Description rdf:about=""/>
   </rdf:RDF>
</x:xmpmeta>
                                                                                                    
                                                                                                    
                                                                                                    
                                                                                                    
                                                                                                    
                                                                                                    
                                                                                                    
                                                                                                    
                                                                                                    
                                                                                                    
                                                                                                    
                                                                                                    
                                                                                                    
                                                                                                    
                                                                                                    
                                                                                                    
                                                                                                    
                                                                                                    
                                                                                                    
                                                                                                    
                           
<?xpacket end="w"?></metadata>
<defs>
    <style>
      .cls-1 {
        fill: #333;
      }

      .cls-1, .cls-2 {
        fill-rule: evenodd;
      }

      .cls-2 {
        fill: #0863c9;
      }

      .cls-3 {
        fill: #ffd02d;
      }

      .cls-4 {
        fill: #f98305;
      }

      .cls-5 {
        fill: #00ca8d;
      }
    </style>
  </defs>
  <path id="往届高分学员荣誉榜" class="cls-1" d="M194.29,2904.44l-8.617.51v2.45l8.617-.51v14.82l-10.625.49v2.48l29.079-1.4v-2.47l-11.054.54v-14.89l9.024-.54v-2.45l-9.024.54v-11.48l10.265-.56v-2.47l-9.994.56-1.986-5.19H192.8l1.918,5.6-9.746.51v2.45l9.317-.49v11.5Zm-19.22,20.44h7.083v-21.77h-2.594l6.136-8.82h-6.9l6.9-9.51h-7.332l-7.941,11.37H177.1l-6.768,10.11h4.738v18.62Zm52.7-38.03v2.45l22.04-1.12v6.51l-23.236,1.08L227,2885.46h-7.084l-1.669,39.22h7.083l1.128-26.44,30.433-1.42v-11.47Zm17.574,16.17v-4.29h-6.768v4.72l-2.707.18v2.45l2.707-.18v6.24l-3.677.2v-9.74H228.13v22.14l27.928-1.21v-21.2ZM234.9,2914.81l3.677-.22v7.25l-3.677.16v-7.19Zm10.445-.6,3.948-.23v7.39l-3.948.18v-7.34Zm0-8.74,3.948-.27v6.34l-3.948.22v-6.29Zm47.6,5.01-11.3.81v2.18l5.144-.36v4.44l-5.934.34v-7.32h-6.158v9.86l18.25-1.01v-8.94Zm8.979,14.4v-20.4l-28.583,1.49v2.44l21.815-1.12v15.14h-5.685v2.45h12.453Zm-25.56-32.32h-6.768v10.64l28.7-1.57v-9.37l-21.026,1.24v2.36l14.258-.83v4.6l-15.16.83v-7.9Zm-13.017-4.11v2.44l41.1-1.97v-2.47l-16.469.81-0.835-2.61h-7.94l0.992,2.99Zm2.324,16.41v20.04h6.768v-20.04h-6.768Zm85.3-3.41-12.182-16.82H330.64l11.235,16.19-25.944,1.21v2.45l4.738-.22-8.167,20.71h8.144l8.257-21.09,7.625-.36v18.93h-6.745v2.45h14.145v-23.45h7.038Zm-41.577.2h8.866l11.145-16.01h-8.393Zm87.4,7.64v-2.47l-15.228.72,5.821-7.77v-2.45l-21.635.78v2.45l13.581-.51-5.527,7.86-17.867.85v2.45l17.235-.81v12.13h-4.76v2.45H380.61v-2.45h-0.045v-12.49Zm-26.011-18.6-2.279-5.03h-7.174l2.121,4.9h-6.791v10.87h7.084v-10.74h7.039Zm-6.182.9v2.45l24.229-1.24v7.84h7.084V2890Zm20.191-6.47-2.369,4.67h7.016l2.437-4.67h-7.084Zm-10.874,5.06h7.265l-2.369-5.49h-7.242Zm41.691-3.26v2.47l14.573-.88v6.4l-15.7.86v-10.18h-7.084v13.03l29.869-1.64v-11.36h0Zm15.949,37.62H441.7l-11.393-8.53h-6.271l2.03-1.53v-8.78h-7.084v6.44l-6.136,4.61v-16.53h-7.083v17.18h6.226l-10.062,7.54H412.17l10.265-7.72Zm7.512-22.26v-2.45l-25.153,1.58v2.2l18.07-.95v13.86h7.083v-14.24h0Zm34.223-7.57h7.084v-4.51l8.956-.41v-2.45l-8.956.41v-3.12h-7.084v3.43l-9.317.41v-3.3h-7.084v3.61l-8.888.38v2.48l8.888-.41v4.18h7.084v-4.49l9.317-.41v4.2Zm-8.234,30.19h7.4v-15.88l16.716-.76v-2.45l-16.716.76v-5.16h-7.4v5.48l-16.581.76v2.45l16.581-.74v15.54Zm-7.67-27.69v2.44l23.326-1.21v5.89h7.084v-8.7Zm24.409,13.67h-7.512l6.114,11.75h7.783Zm-25.131,12.54,6.384-12.02H455.53l-6.655,12.02h7.783Zm-0.09-27.58h-7.084v9.09h7.084v-9.09Zm70.837,6.89h8.482l-9.272-8.35,8.776-.43,0.067-2.45-41.171,1.98-0.045,2.47,8.121-.41-8.843,8.11h7.4v0.61l26.462-1.53h0.023Zm-9.814-5.3h-7.174l1.715,3.82-8.077.45,6.746-6.56,8.437-.41,5.888,5.75-5.707.34Zm-10.986,17.63h-7.084v9.79l31.064-1.72v-6.54h-0.022v-1.98l-22.853,1.28v2.36l15.792-.87v3.77l-16.9.94h0v-7.03Zm17.844-29.49-2.955,5.12h7.354l2.843-5.12h-7.242Zm-23.868,6.54h7.445l-2.775-6.02h-7.445Zm11.393-1.04H519.4l-2.594-6.38H509.38Zm18.611,18.44-31.064,1.73v2.36l31.064-1.73v-2.36Zm0-4.44-31.064,1.73v2.35l31.064-1.72v-2.36Zm8.438,9.43h3.925l1.286-7.55v18.02h5.843v-22.08l1.421,6.92h4.016l-2.707-11.48h-2.73v-2.97l4.038-.33v-2.47l-4.038.36v-8.34h-5.843v8.83l-4.286.38v2.45l3.97-.34Zm33.817-1.46v9.05h-4.4v2.45h11.483v-14.31l-14.325.7,0.857-3.82,15.5-.81v-2.45l-9.791.5-1.151-4.13H564.2l1.106,4.49-9.791.51v2.45l3.9-.2-4.016,17.12h7.174l2.481-11.19Zm2.323-10.31h6.475v-7.59l-5.347.36,1.263-4H571.17l-1.6,4.45-2.684.18-1.4-3.93H559.1l1.353,4.35-5.3.34v6.81h6.474v-4.99l13.536-.94h0v4.96Zm-19.288-13.9v2.45l25.109-1.28v-2.45l-9.069.45-1.174-3.31H563.59l1.128,3.69Z" transform="translate(-111.875 -2855.56)"/>
  <path id="_" data-name="“" class="cls-2" d="M130.388,2868.07q0.94-10.62,10.985-12.5v5a3.745,3.745,0,0,0-2.511,1.88,4.293,4.293,0,0,0-1.569,2.81v1.88H142v12.81H130.388v-11.88Zm-18.519,0q1.884-11.25,10.672-12.5v5a7.4,7.4,0,0,0-3.767,4.69v1.88h4.708v12.81H111.869v-11.88Z" transform="translate(-111.875 -2855.56)"/>
  <path id="_2" data-name="”" class="cls-2" d="M637.9,2944.63q-0.941,10.635-10.985,13.13v-5a13.119,13.119,0,0,0,2.511-1.88,7.62,7.62,0,0,0,1.569-2.81v-2.5h-5.022v-12.19H637.9v11.25Zm-18.2,0q-0.633,11.25-10.986,13.13v-5a5.953,5.953,0,0,0,4.081-4.69v-2.5h-5.022v-12.19h11.927v11.25Z" transform="translate(-111.875 -2855.56)"/>
  <ellipse id="椭圆_1_拷贝_3" data-name="椭圆 1 拷贝 3" class="cls-3" cx="66.453" cy="80.91" rx="23.641" ry="23.53"/>
  <circle id="椭圆_1_拷贝_5" data-name="椭圆 1 拷贝 5" class="cls-4" cx="467.485" cy="24.425" r="12.515"/>
  <circle id="椭圆_1_拷贝_3-2" data-name="椭圆 1 拷贝 3" class="cls-5" cx="92.859" cy="74" r="12.516"/>
</svg>
